<svg xmlns="http://www.w3.org/2000/svg" viewBox="0 0 1600 800"><defs><linearGradient id="b"><stop stop-color="#24090d"/><stop offset="1" stop-color="#7a2824"/></linearGradient><radialGradient id="l"><stop stop-color="#f6d58e" stop-opacity=".75"/><stop offset="1" stop-color="#f6d58e" stop-opacity="0"/></radialGradient></defs><rect width="1600" height="800" fill="url(#b)"/><circle cx="1190" cy="330" r="400" fill="url(#l)"/><g stroke="#e1bc76" fill="none" opacity=".4" stroke-width="3"><path d="M1000 610h410M1100 610l60-290h95l65 290"/><path d="M1140 405h145"/><path d="M1170 320v-90h75v90"/><ellipse cx="1205" cy="440" rx="85" ry="35"/><circle cx="1400" cy="180" r="70"/><path d="M1350 230l-100 110"/></g><g fill="#120609"><circle cx="1015" cy="375" r="42"/><path d="M970 415l-25 205h150l-30-205z"/><path d="M1050 460l125 70-15 35-130-50z"/></g><g fill="#f1cf84" opacity=".45"><circle cx="1330" cy="280" r="5"/><circle cx="1420" cy="350" r="3"/><circle cx="1280" cy="140" r="4"/><circle cx="1500" cy="270" r="2"/></g></svg>
